<svg class="main-svg" xmlns="http://www.w3.org/2000/svg" xmlns:xlink="http://www.w3.org/1999/xlink" width="480" height="240" style="" viewBox="0 0 480 240"><rect x="0" y="0" width="480" height="240" style="fill: rgb(255, 255, 255); fill-opacity: 1;"/><defs id="defs-0f11c8"><g class="clips"><clipPath id="clip0f11c8xyplot" class="plotclip"><rect width="472" height="155"/></clipPath><clipPath class="axesclip" id="clip0f11c8x"><rect x="8" y="0" width="472" height="240"/></clipPath><clipPath class="axesclip" id="clip0f11c8y"><rect x="0" y="40" width="480" height="155"/></clipPath><clipPath class="axesclip" id="clip0f11c8xy"><rect x="8" y="40" width="472" height="155"/></clipPath></g><g class="gradients"/></defs><g class="bglayer"/><g class="layer-below"><g class="imagelayer"/><g class="shapelayer"/></g><g class="cartesianlayer"><g class="subplot xy"><g class="layer-subplot"><g class="shapelayer"/><g class="imagelayer"/></g><g class="gridlayer"><g class="x"/><g class="y"><path class="ygrid crisp" transform="translate(0,156.25)" d="M8,0h472" style="stroke: rgb(238, 238, 238); stroke-opacity: 1; stroke-width: 1px;"/><path class="ygrid crisp" transform="translate(0,117.5)" d="M8,0h472" style="stroke: rgb(238, 238, 238); stroke-opacity: 1; stroke-width: 1px;"/><path class="ygrid crisp" transform="translate(0,78.75)" d="M8,0h472" style="stroke: rgb(238, 238, 238); stroke-opacity: 1; stroke-width: 1px;"/></g></g><g class="zerolinelayer"><path class="yzl zl crisp" transform="translate(0,195)" d="M8,0h472" style="stroke: rgb(68, 68, 68); stroke-opacity: 1; stroke-width: 1px;"/></g><path class="xlines-below"/><path class="ylines-below"/><g class="overlines-below"/><g class="xaxislayer-below"/><g class="yaxislayer-below"/><g class="overaxes-below"/><g class="plot" transform="translate(8, 40)" clip-path="url('#clip0f11c8xyplot')"><g class="scatterlayer mlayer"><g class="trace scatter trace34cac3" style="stroke-miterlimit: 2; opacity: 1;"><g class="fills"><g><path class="js-fill" d="M84.96,155L84.96,0L103.84,0L103.84,155Z" style="fill: rgb(192, 192, 192); fill-opacity: 0.2; stroke-width: 0;"/></g></g><g class="errorbars"/><g class="lines"><path class="js-line" d="M84.96,155L84.96,0L103.84,0L103.84,155" style="vector-effect: non-scaling-stroke; fill: none; stroke: rgb(31, 119, 180); stroke-opacity: 1; stroke-width: 0px; opacity: 1;"/></g><g class="points"/><g class="text"/></g><g class="trace scatter trace029436" style="stroke-miterlimit: 2; opacity: 1;"><g class="fills"><g><path class="js-fill" d="M103.84,155L103.84,0L269.04,0L269.04,155Z" style="fill: rgb(153, 52, 4); fill-opacity: 0.2; stroke-width: 0;"/></g></g><g class="errorbars"/><g class="lines"><path class="js-line" d="M103.84,155L103.84,0L269.04,0L269.04,155" style="vector-effect: non-scaling-stroke; fill: none; stroke: rgb(255, 127, 14); stroke-opacity: 1; stroke-width: 0px; opacity: 1;"/></g><g class="points"/><g class="text"/></g><g class="trace scatter tracebb02fd" style="stroke-miterlimit: 2; opacity: 1;"><g class="fills"><g><path class="js-fill" d="M269.04,155L269.04,0L415.36,0L415.36,155Z" style="fill: rgb(217, 95, 14); fill-opacity: 0.2; stroke-width: 0;"/></g></g><g class="errorbars"/><g class="lines"><path class="js-line" d="M269.04,155L269.04,0L415.36,0L415.36,155" style="vector-effect: non-scaling-stroke; fill: none; stroke: rgb(44, 160, 44); stroke-opacity: 1; stroke-width: 0px; opacity: 1;"/></g><g class="points"/><g class="text"/></g><g class="trace scatter tracebab1c6" style="stroke-miterlimit: 2; opacity: 1;"><g class="fills"><g><path class="js-fill" d="M415.36,155L415.36,0L472,0L472,155Z" style="fill: rgb(254, 153, 41); fill-opacity: 0.2; stroke-width: 0;"/></g></g><g class="errorbars"/><g class="lines"><path class="js-line" d="M415.36,155L415.36,0L472,0L472,155" style="vector-effect: non-scaling-stroke; fill: none; stroke: rgb(214, 39, 40); stroke-opacity: 1; stroke-width: 0px; opacity: 1;"/></g><g class="points"/><g class="text"/></g><g class="trace scatter trace0c5701" style="stroke-miterlimit: 2; opacity: 1;"><g class="fills"/><g class="errorbars"/><g class="lines"><path class="js-line" d="M84.96,155L84.96,0" style="vector-effect: non-scaling-stroke; fill: none; stroke: rgb(0, 0, 0); stroke-opacity: 0.2; stroke-width: 1px; opacity: 1;"/></g><g class="points"/><g class="text"/></g><g class="trace scatter trace66cdca" style="stroke-miterlimit: 2; opacity: 1;"><g class="fills"/><g class="errorbars"/><g class="lines"><path class="js-line" d="M103.84,155L103.84,0" style="vector-effect: non-scaling-stroke; fill: none; stroke: rgb(0, 0, 0); stroke-opacity: 0.2; stroke-width: 1px; opacity: 1;"/></g><g class="points"/><g class="text"/></g><g class="trace scatter traced8e7d2" style="stroke-miterlimit: 2; opacity: 1;"><g class="fills"/><g class="errorbars"/><g class="lines"><path class="js-line" d="M269.04,155L269.04,0" style="vector-effect: non-scaling-stroke; fill: none; stroke: rgb(0, 0, 0); stroke-opacity: 0.2; stroke-width: 1px; opacity: 1;"/></g><g class="points"/><g class="text"/></g><g class="trace scatter traceeba513" style="stroke-miterlimit: 2; opacity: 1;"><g class="fills"/><g class="errorbars"/><g class="lines"><path class="js-line" d="M415.36,155L415.36,0" style="vector-effect: non-scaling-stroke; fill: none; stroke: rgb(0, 0, 0); stroke-opacity: 0.2; stroke-width: 1px; opacity: 1;"/></g><g class="points"/><g class="text"/></g><g class="trace scatter traced93c97" style="stroke-miterlimit: 2; opacity: 1;"><g class="fills"><g><path class="js-fill" d="M0,155L0,0L0,155Z" style="fill: rgb(205, 218, 233); fill-opacity: 0.8; stroke-width: 0;"/></g></g><g class="errorbars"/><g class="lines"><path class="js-line" d="M0,155L0,0L0,155" style="vector-effect: non-scaling-stroke; fill: none; stroke: rgb(188, 189, 34); stroke-opacity: 1; stroke-width: 0px; opacity: 1;"/></g><g class="points"/><g class="text"/></g><g class="trace scatter tracee6ad18" style="stroke-miterlimit: 2;"><g class="fills"><g><path class="js-fill" d="M0,5.35L4.72,-63.47L9.44,-57.3L18.88,-22.4L23.6,-22.95L33.04,5.13L37.76,9.01L42.48,18.97L47.2,23.3L56.64,31.96L61.36,36.96L66.08,39.55L70.8,44.5L80.24,57.41L84.96,62.47L103.84,92.16L108.56,98.49L113.28,103.78L118,103.86L127.44,98.42L132.16,93.79L136.88,88.2L141.6,84.08L146.32,82.49L151.04,78.72L160.48,74.52L165.2,73.48L174.64,72.83L179.36,74.12L184.08,74.77L188.8,76.22L193.52,77.82L198.24,77.74L202.96,79.55L207.68,80.37L236,87.34L240.72,87.59L264.32,86.1L269.04,86.48L278.48,87.9L283.2,88L306.8,87.28L311.52,87.92L330.4,91.26L335.12,92.26L354,95.04L358.72,95.17L368.16,94.76L372.88,94.15L391.76,91.5L396.48,91.35L420.08,92.35L424.8,92.96L443.68,96.24L448.4,96.38L472,96.53L472,120.49L467.28,120.19L453.12,120.54L448.4,120.7L438.96,120.13L434.24,119.41L420.08,117.25L415.36,117.03L396.48,117.1L391.76,117.45L372.88,120.91L368.16,121.7L354,122.51L349.28,122.29L330.4,119.84L325.68,119.34L311.52,117.99L306.8,117.81L283.2,121.26L278.48,121.72L269.04,121.48L264.32,121.78L240.72,126.79L236,127.18L226.56,126.67L221.84,126.04L217.12,126.24L212.4,125.38L202.96,125.72L198.24,125.21L193.52,126.75L188.8,126.61L174.64,128.46L169.92,130.56L160.48,135.9L155.76,139.21L146.32,147.71L141.6,149.57L132.16,158.71L127.44,161.98L118,163.49L113.28,161.24L103.84,146.55L99.12,138.93L89.68,126.18L84.96,120.85L75.52,117.16L70.8,115.53L66.08,117.06L61.36,122.03L56.64,125.26L51.92,130.06L42.48,143.82L37.76,146.38L33.04,158.06L28.32,160.22L23.6,167.62L18.88,195.44L14.16,203.07L9.44,218.24L0,384.37Z" style="fill: rgb(205, 218, 233); fill-opacity: 0.8; stroke-width: 0;"/></g></g><g class="errorbars"/><g class="lines"><path class="js-line" d="M0,384.37L9.44,218.24L14.16,203.07L18.88,195.44L23.6,167.62L28.32,160.22L33.04,158.06L37.76,146.38L42.48,143.82L51.92,130.06L56.64,125.26L61.36,122.03L66.08,117.06L70.8,115.53L75.52,117.16L84.96,120.85L89.68,126.18L99.12,138.93L103.84,146.55L113.28,161.24L118,163.49L127.44,161.98L132.16,158.71L141.6,149.57L146.32,147.71L155.76,139.21L160.48,135.9L169.92,130.56L174.64,128.46L188.8,126.61L193.52,126.75L198.24,125.21L202.96,125.72L212.4,125.38L217.12,126.24L221.84,126.04L226.56,126.67L236,127.18L240.72,126.79L264.32,121.78L269.04,121.48L278.48,121.72L283.2,121.26L306.8,117.81L311.52,117.99L325.68,119.34L330.4,119.84L349.28,122.29L354,122.51L368.16,121.7L372.88,120.91L391.76,117.45L396.48,117.1L415.36,117.03L420.08,117.25L434.24,119.41L438.96,120.13L448.4,120.7L453.12,120.54L467.28,120.19L472,120.49" style="vector-effect: non-scaling-stroke; fill: none; stroke: rgb(73, 121, 177); stroke-opacity: 0.5; stroke-width: 1px; opacity: 1;"/></g><g class="points"/><g class="text"/></g><g class="trace scatter trace23550e" style="stroke-miterlimit: 2;"><g class="fills"/><g class="errorbars"/><g class="lines"><path class="js-line" d="M0,5.35L4.72,-63.47L9.44,-57.3L18.88,-22.4L23.6,-22.95L33.04,5.13L37.76,9.01L42.48,18.97L47.2,23.3L56.64,31.96L61.36,36.96L66.08,39.55L70.8,44.5L80.24,57.41L84.96,62.47L103.84,92.16L108.56,98.49L113.28,103.78L118,103.86L127.44,98.42L132.16,93.79L136.88,88.2L141.6,84.08L146.32,82.49L151.04,78.72L160.48,74.52L165.2,73.48L174.64,72.83L179.36,74.12L184.08,74.77L188.8,76.22L193.52,77.82L198.24,77.74L202.96,79.55L207.68,80.37L236,87.34L240.72,87.59L264.32,86.1L269.04,86.48L278.48,87.9L283.2,88L306.8,87.28L311.52,87.92L330.4,91.26L335.12,92.26L354,95.04L358.72,95.17L368.16,94.76L372.88,94.15L391.76,91.5L396.48,91.35L420.08,92.35L424.8,92.96L443.68,96.24L448.4,96.38L472,96.53" style="vector-effect: non-scaling-stroke; fill: none; stroke: rgb(73, 121, 177); stroke-opacity: 0.5; stroke-width: 1px; opacity: 1;"/></g><g class="points"/><g class="text"/></g><g class="trace scatter tracead7293" style="stroke-miterlimit: 2; opacity: 1;"><g class="fills"/><g class="errorbars"/><g class="lines"><path class="js-line" d="M4.72,76.32L9.44,64.8L14.16,69.87L18.88,76.7L23.6,64.84L28.32,69.79L33.04,76.82L37.76,73.88L42.48,78.27L51.92,76.65L56.64,76.96L61.36,78.16L66.08,77.23L70.8,79.15L75.52,83.51L84.96,91.14L89.68,97.69L99.12,111.48L103.84,118.93L113.28,132.01L118,133.12L127.44,129.55L132.16,125.56L136.88,120.25L141.6,116.12L146.32,114.4L151.04,110.21L160.48,104.62L165.2,102.71L174.64,100.2L179.36,100.61L184.08,100.41L188.8,101.08L193.52,101.98L198.24,101.21L202.96,102.39L207.68,102.63L221.84,104.88L226.56,105.92L236,107.13L240.72,107.07L264.32,103.88L269.04,103.93L278.48,104.78L283.2,104.61L306.8,102.56L311.52,102.97L330.4,105.59L335.12,106.45L354,108.83L358.72,108.88L368.16,108.29L372.88,107.59L391.76,104.55L396.48,104.3L420.08,104.88L424.8,105.42L443.68,108.52L448.4,108.63L472,108.6" style="vector-effect: non-scaling-stroke; fill: none; stroke: rgb(73, 121, 177); stroke-opacity: 1; stroke-width: 2.5px; opacity: 1;"/></g><g class="points"/><g class="text"/></g><g class="trace scatter trace659659" style="stroke-miterlimit: 2; opacity: 1;"><g class="fills"/><g class="errorbars"/><g class="lines"><path class="js-line" d="M0,116.25L472,116.25" style="vector-effect: non-scaling-stroke; fill: none; stroke: rgb(192, 0, 0); stroke-opacity: 1; stroke-width: 1.5px; opacity: 1;"/></g><g class="points"/><g class="text"/></g></g></g><g class="overplot"/><path class="xlines-above crisp" d="M0,0" style="fill: none;"/><path class="ylines-above crisp" d="M0,0" style="fill: none;"/><g class="overlines-above"/><g class="xaxislayer-above"><g class="xtick"><text text-anchor="middle" x="0" y="208" transform="translate(55.2,0)" style="font-family: 'Open Sans', verdana, arial, sans-serif; font-size: 12px; fill: rgb(68, 68, 68); fill-opacity: 1; white-space: pre;">15 Mar</text></g><g class="xtick"><text text-anchor="middle" x="0" y="208" transform="translate(187.36,0)" style="font-family: 'Open Sans', verdana, arial, sans-serif; font-size: 12px; fill: rgb(68, 68, 68); fill-opacity: 1; white-space: pre;">12 Apr</text></g><g class="xtick"><text text-anchor="middle" x="0" y="208" transform="translate(319.52,0)" style="font-family: 'Open Sans', verdana, arial, sans-serif; font-size: 12px; fill: rgb(68, 68, 68); fill-opacity: 1; white-space: pre;">10 May</text></g><g class="xtick"><text text-anchor="middle" x="0" y="208" transform="translate(451.68,0)" style="font-family: 'Open Sans', verdana, arial, sans-serif; font-size: 12px; fill: rgb(68, 68, 68); fill-opacity: 1; white-space: pre;">07 Jun</text></g></g><g class="yaxislayer-above"><g class="ytick"><text text-anchor="end" x="7" y="4.199999999999999" transform="translate(0,195)" style="font-family: 'Open Sans', verdana, arial, sans-serif; font-size: 12px; fill: rgb(68, 68, 68); fill-opacity: 1; white-space: pre;">0</text></g><g class="ytick"><text text-anchor="end" x="7" y="4.199999999999999" transform="translate(0,156.25)" style="font-family: 'Open Sans', verdana, arial, sans-serif; font-size: 12px; fill: rgb(68, 68, 68); fill-opacity: 1; white-space: pre;">1</text></g><g class="ytick"><text text-anchor="end" x="7" y="4.199999999999999" transform="translate(0,117.5)" style="font-family: 'Open Sans', verdana, arial, sans-serif; font-size: 12px; fill: rgb(68, 68, 68); fill-opacity: 1; white-space: pre;">2</text></g><g class="ytick"><text text-anchor="end" x="7" y="4.199999999999999" transform="translate(0,78.75)" style="font-family: 'Open Sans', verdana, arial, sans-serif; font-size: 12px; fill: rgb(68, 68, 68); fill-opacity: 1; white-space: pre;">3</text></g><g class="ytick"><text text-anchor="end" x="7" y="4.199999999999999" transform="translate(0,40)" style="font-family: 'Open Sans', verdana, arial, sans-serif; font-size: 12px; fill: rgb(68, 68, 68); fill-opacity: 1; white-space: pre;">4</text></g></g><g class="overaxes-above"/></g></g><g class="polarlayer"/><g class="ternarylayer"/><g class="geolayer"/><g class="funnelarealayer"/><g class="pielayer"/><g class="treemaplayer"/><g class="sunburstlayer"/><g class="glimages"/><defs id="topdefs-0f11c8"><g class="clips"/><clipPath id="legend0f11c8"><rect width="88" height="29" x="0" y="0"/></clipPath></defs><g class="layer-above"><g class="imagelayer"/><g class="shapelayer"/></g><g class="infolayer"><g class="legend" pointer-events="all" transform="translate(8, 210.5)"><rect class="bg" shape-rendering="crispEdges" width="88" height="29" x="0" y="0" style="stroke: rgb(68, 68, 68); stroke-opacity: 1; fill: rgb(255, 255, 255); fill-opacity: 1; stroke-width: 0px;"/><g class="scrollbox" transform="translate(0, 0)" clip-path="url('#legend0f11c8')"><g class="groups"><g class="traces" transform="translate(0, 14.5)" style="opacity: 1;"><text class="legendtext user-select-none" text-anchor="start" x="40" y="4.680000000000001" style="font-family: 'Open Sans', verdana, arial, sans-serif; font-size: 12px; fill: rgb(68, 68, 68); fill-opacity: 1; white-space: pre;">\(R_t\)</text><g class="layers" style="opacity: 1;"><g class="legendfill"/><g class="legendlines"><path class="js-line" d="M5,0h30" style="fill: none; stroke: rgb(73, 121, 177); stroke-opacity: 1; stroke-width: 2.5px;"/></g><g class="legendsymbols"><g class="legendpoints"/></g></g><rect class="legendtoggle" pointer-events="all" x="0" y="-9.5" width="85" height="19" style="cursor: pointer; fill: rgb(0, 0, 0); fill-opacity: 0;"/></g></g></g><rect class="scrollbar" rx="20" ry="3" width="0" height="0" x="0" y="0" style="fill: rgb(128, 139, 164); fill-opacity: 1;"/></g><g class="g-gtitle"><text class="gtitle" x="240" y="20" text-anchor="middle" dy="0em" style="font-family: 'Open Sans', verdana, arial, sans-serif; font-size: 17px; fill: rgb(68, 68, 68); opacity: 1; font-weight: normal; white-space: pre;">Effective Reproduction Number</text></g><g class="g-xtitle"/><g class="g-ytitle"/></g></svg>