<svg class="main-svg" xmlns="http://www.w3.org/2000/svg" xmlns:xlink="http://www.w3.org/1999/xlink" width="480" height="240" style="" viewBox="0 0 480 240"><rect x="0" y="0" width="480" height="240" style="fill: rgb(255, 255, 255); fill-opacity: 1;"/><defs id="defs-b4397f"><g class="clips"><clipPath id="clipb4397fxyplot" class="plotclip"><rect width="448" height="155"/></clipPath><clipPath class="axesclip" id="clipb4397fx"><rect x="32" y="0" width="448" height="240"/></clipPath><clipPath class="axesclip" id="clipb4397fy"><rect x="0" y="40" width="480" height="155"/></clipPath><clipPath class="axesclip" id="clipb4397fxy"><rect x="32" y="40" width="448" height="155"/></clipPath></g><g class="gradients"/></defs><g class="bglayer"/><g class="layer-below"><g class="imagelayer"/><g class="shapelayer"/></g><g class="cartesianlayer"><g class="subplot xy"><g class="layer-subplot"><g class="shapelayer"/><g class="imagelayer"/></g><g class="gridlayer"><g class="x"/><g class="y"><path class="ygrid crisp" transform="translate(0,154.95999999999998)" d="M32,0h448" style="stroke: rgb(238, 238, 238); stroke-opacity: 1; stroke-width: 1px;"/><path class="ygrid crisp" transform="translate(0,120.15)" d="M32,0h448" style="stroke: rgb(238, 238, 238); stroke-opacity: 1; stroke-width: 1px;"/><path class="ygrid crisp" transform="translate(0,85.33)" d="M32,0h448" style="stroke: rgb(238, 238, 238); stroke-opacity: 1; stroke-width: 1px;"/><path class="ygrid crisp" transform="translate(0,50.51)" d="M32,0h448" style="stroke: rgb(238, 238, 238); stroke-opacity: 1; stroke-width: 1px;"/></g></g><g class="zerolinelayer"><path class="yzl zl crisp" transform="translate(0,189.78)" d="M32,0h448" style="stroke: rgb(68, 68, 68); stroke-opacity: 1; stroke-width: 1px;"/></g><path class="xlines-below"/><path class="ylines-below"/><g class="overlines-below"/><g class="xaxislayer-below"/><g class="yaxislayer-below"/><g class="overaxes-below"/><g class="plot" transform="translate(32, 40)" clip-path="url('#clipb4397fxyplot')"><g class="scatterlayer mlayer"><g class="trace scatter trace95dba6" style="stroke-miterlimit: 2; opacity: 1;"><g class="fills"><g><path class="js-fill" d="M79.84,149.78L79.84,0L97.58,0L97.58,149.78Z" style="fill: rgb(192, 192, 192); fill-opacity: 0.2; stroke-width: 0;"/></g></g><g class="errorbars"/><g class="lines"><path class="js-line" d="M79.84,149.78L79.84,0L97.58,0L97.58,149.78" style="vector-effect: non-scaling-stroke; fill: none; stroke: rgb(31, 119, 180); stroke-opacity: 1; stroke-width: 0px; opacity: 1;"/></g><g class="points"/><g class="text"/></g><g class="trace scatter trace648e72" style="stroke-miterlimit: 2; opacity: 1;"><g class="fills"><g><path class="js-fill" d="M97.58,149.78L97.58,0L252.83,0L252.83,149.78Z" style="fill: rgb(153, 52, 4); fill-opacity: 0.2; stroke-width: 0;"/></g></g><g class="errorbars"/><g class="lines"><path class="js-line" d="M97.58,149.78L97.58,0L252.83,0L252.83,149.78" style="vector-effect: non-scaling-stroke; fill: none; stroke: rgb(255, 127, 14); stroke-opacity: 1; stroke-width: 0px; opacity: 1;"/></g><g class="points"/><g class="text"/></g><g class="trace scatter trace55d972" style="stroke-miterlimit: 2; opacity: 1;"><g class="fills"><g><path class="js-fill" d="M252.83,149.78L252.83,0L390.34,0L390.34,149.78Z" style="fill: rgb(217, 95, 14); fill-opacity: 0.2; stroke-width: 0;"/></g></g><g class="errorbars"/><g class="lines"><path class="js-line" d="M252.83,149.78L252.83,0L390.34,0L390.34,149.78" style="vector-effect: non-scaling-stroke; fill: none; stroke: rgb(44, 160, 44); stroke-opacity: 1; stroke-width: 0px; opacity: 1;"/></g><g class="points"/><g class="text"/></g><g class="trace scatter trace5d6fba" style="stroke-miterlimit: 2; opacity: 1;"><g class="fills"><g><path class="js-fill" d="M390.34,149.78L390.34,0L448,0L448,149.78Z" style="fill: rgb(254, 153, 41); fill-opacity: 0.2; stroke-width: 0;"/></g></g><g class="errorbars"/><g class="lines"><path class="js-line" d="M390.34,149.78L390.34,0L448,0L448,149.78" style="vector-effect: non-scaling-stroke; fill: none; stroke: rgb(214, 39, 40); stroke-opacity: 1; stroke-width: 0px; opacity: 1;"/></g><g class="points"/><g class="text"/></g><g class="trace scatter traceedf71d" style="stroke-miterlimit: 2; opacity: 1;"><g class="fills"/><g class="errorbars"/><g class="lines"><path class="js-line" d="M79.84,149.78L79.84,0" style="vector-effect: non-scaling-stroke; fill: none; stroke: rgb(0, 0, 0); stroke-opacity: 0.2; stroke-width: 1px; opacity: 1;"/></g><g class="points"/><g class="text"/></g><g class="trace scatter trace4bd114" style="stroke-miterlimit: 2; opacity: 1;"><g class="fills"/><g class="errorbars"/><g class="lines"><path class="js-line" d="M97.58,149.78L97.58,0" style="vector-effect: non-scaling-stroke; fill: none; stroke: rgb(0, 0, 0); stroke-opacity: 0.2; stroke-width: 1px; opacity: 1;"/></g><g class="points"/><g class="text"/></g><g class="trace scatter trace03c05e" style="stroke-miterlimit: 2; opacity: 1;"><g class="fills"/><g class="errorbars"/><g class="lines"><path class="js-line" d="M252.83,149.78L252.83,0" style="vector-effect: non-scaling-stroke; fill: none; stroke: rgb(0, 0, 0); stroke-opacity: 0.2; stroke-width: 1px; opacity: 1;"/></g><g class="points"/><g class="text"/></g><g class="trace scatter trace30c897" style="stroke-miterlimit: 2; opacity: 1;"><g class="fills"/><g class="errorbars"/><g class="lines"><path class="js-line" d="M390.34,149.78L390.34,0" style="vector-effect: non-scaling-stroke; fill: none; stroke: rgb(0, 0, 0); stroke-opacity: 0.2; stroke-width: 1px; opacity: 1;"/></g><g class="points"/><g class="text"/></g><g class="trace scatter trace890219" style="stroke-miterlimit: 2; opacity: 1;"><g class="fills"/><g class="errorbars"/><g class="lines"><path class="js-line" d="M13.31,149.74L17.74,149.64" style="vector-effect: non-scaling-stroke; fill: none; stroke: rgb(73, 121, 177); stroke-opacity: 0.8; stroke-width: 2px; opacity: 1; stroke-dasharray: 6px;"/><path class="js-line" d="M31.05,149.67L70.97,148.45L75.41,148.59L79.84,145.36L84.28,145.11L88.71,145.98L93.15,142.68" style="vector-effect: non-scaling-stroke; fill: none; stroke: rgb(73, 121, 177); stroke-opacity: 0.8; stroke-width: 2px; opacity: 1; stroke-dasharray: 6px;"/><path class="js-line" d="M106.46,145.95L110.89,148.04L115.33,148.63L119.76,148.84L124.2,147.06L128.63,148.28L133.07,145.91L137.5,147.83L141.94,148.7" style="vector-effect: non-scaling-stroke; fill: none; stroke: rgb(73, 121, 177); stroke-opacity: 0.8; stroke-width: 2px; opacity: 1; stroke-dasharray: 6px;"/><path class="js-line" d="M155.25,146.68L159.68,147.34L164.12,148.91L168.55,144.9L172.99,146.4L177.43,144.83L181.86,146.61L186.3,146.26L190.73,143.79L195.17,141.39L199.6,145.81L212.91,142.4L217.35,138.71L221.78,140.45L226.22,145.08L235.09,141.07L239.52,142.74L243.96,137.52L248.4,139.44L252.83,139.19L257.27,136.37L261.7,134.21L266.14,134.91L270.57,137.17L275.01,142.95L279.45,133.62L283.88,126.69L288.32,131.5L292.75,129.06L306.06,124.57L310.5,126.63L314.93,122.45L319.37,120.85L323.8,109.39L328.24,117.82L332.67,123.07L337.11,121.82L341.54,110.3L345.98,115.38L350.42,107.37L354.85,106.61L359.29,113.81L363.72,127.22L368.16,91.53L372.59,98.74L377.03,86.94L381.47,89.69L385.9,89.09L390.34,91.5L394.77,99.12L399.21,90.1L403.64,36.03L408.08,57.79L412.51,61.38L416.95,69.77L421.39,60.16L425.82,76.87L430.26,65.18L434.69,40.42L439.13,32.83L443.56,17.16L448,0" style="vector-effect: non-scaling-stroke; fill: none; stroke: rgb(73, 121, 177); stroke-opacity: 0.8; stroke-width: 2px; opacity: 1; stroke-dasharray: 6px;"/></g><g class="points"/><g class="text"/></g><g class="trace scatter trace87443d" style="stroke-miterlimit: 2; opacity: 1;"><g class="fills"/><g class="errorbars"/><g class="lines"><path class="js-line" d="M0,149.71L48.79,149.01L53.23,148.84L102.02,146.44L106.46,146.68L128.63,147.62L133.07,147.62L164.12,146.68L168.55,146.4L217.35,142.61L221.78,142.26L243.96,139.96L248.4,139.3L275.01,134.63L279.45,133.59L301.62,126.9L306.06,125.48L337.11,116.42L341.54,115.14L354.85,110.37L359.29,108.28L372.59,100.13L377.03,96.93L390.34,86.24L394.77,82.34L412.51,67.09L416.95,63.71L430.26,52.99L434.69,48.88L448,35.86" style="vector-effect: non-scaling-stroke; fill: none; stroke: rgb(192, 0, 0); stroke-opacity: 1; stroke-width: 2.5px; opacity: 1;"/></g><g class="points"/><g class="text"/></g></g></g><g class="overplot"/><path class="xlines-above crisp" d="M0,0" style="fill: none;"/><path class="ylines-above crisp" d="M0,0" style="fill: none;"/><g class="overlines-above"/><g class="xaxislayer-above"><g class="xtick"><text text-anchor="middle" x="0" y="208" transform="translate(76.36,0)" style="font-family: 'Open Sans', verdana, arial, sans-serif; font-size: 12px; fill: rgb(68, 68, 68); fill-opacity: 1; white-space: pre;">15 Mar</text></g><g class="xtick"><text text-anchor="middle" x="0" y="208" transform="translate(200.55,0)" style="font-family: 'Open Sans', verdana, arial, sans-serif; font-size: 12px; fill: rgb(68, 68, 68); fill-opacity: 1; white-space: pre;">12 Apr</text></g><g class="xtick"><text text-anchor="middle" x="0" y="208" transform="translate(324.75,0)" style="font-family: 'Open Sans', verdana, arial, sans-serif; font-size: 12px; fill: rgb(68, 68, 68); fill-opacity: 1; white-space: pre;">10 May</text></g><g class="xtick"><text text-anchor="middle" x="0" y="208" transform="translate(448.95,0)" style="font-family: 'Open Sans', verdana, arial, sans-serif; font-size: 12px; fill: rgb(68, 68, 68); fill-opacity: 1; white-space: pre;">07 Jun</text></g></g><g class="yaxislayer-above"><g class="ytick"><text text-anchor="end" x="31" y="4.199999999999999" transform="translate(0,189.78)" style="font-family: 'Open Sans', verdana, arial, sans-serif; font-size: 12px; fill: rgb(68, 68, 68); fill-opacity: 1; white-space: pre;">0</text></g><g class="ytick"><text text-anchor="end" x="31" y="4.199999999999999" transform="translate(0,154.95999999999998)" style="font-family: 'Open Sans', verdana, arial, sans-serif; font-size: 12px; fill: rgb(68, 68, 68); fill-opacity: 1; white-space: pre;">1000</text></g><g class="ytick"><text text-anchor="end" x="31" y="4.199999999999999" transform="translate(0,120.15)" style="font-family: 'Open Sans', verdana, arial, sans-serif; font-size: 12px; fill: rgb(68, 68, 68); fill-opacity: 1; white-space: pre;">2000</text></g><g class="ytick"><text text-anchor="end" x="31" y="4.199999999999999" transform="translate(0,85.33)" style="font-family: 'Open Sans', verdana, arial, sans-serif; font-size: 12px; fill: rgb(68, 68, 68); fill-opacity: 1; white-space: pre;">3000</text></g><g class="ytick"><text text-anchor="end" x="31" y="4.199999999999999" transform="translate(0,50.51)" style="font-family: 'Open Sans', verdana, arial, sans-serif; font-size: 12px; fill: rgb(68, 68, 68); fill-opacity: 1; white-space: pre;">4000</text></g></g><g class="overaxes-above"/></g></g><g class="polarlayer"/><g class="ternarylayer"/><g class="geolayer"/><g class="funnelarealayer"/><g class="pielayer"/><g class="treemaplayer"/><g class="sunburstlayer"/><g class="glimages"/><defs id="topdefs-b4397f"><g class="clips"/><clipPath id="legendb4397f"><rect width="172" height="29" x="0" y="0"/></clipPath></defs><g class="layer-above"><g class="imagelayer"/><g class="shapelayer"/></g><g class="infolayer"><g class="legend" pointer-events="all" transform="translate(32, 210.5)"><rect class="bg" shape-rendering="crispEdges" width="172" height="29" x="0" y="0" style="stroke: rgb(68, 68, 68); stroke-opacity: 1; fill: rgb(255, 255, 255); fill-opacity: 1; stroke-width: 0px;"/><g class="scrollbox" transform="translate(0, 0)" clip-path="url('#legendb4397f')"><g class="groups"><g class="traces" transform="translate(0, 14.5)" style="opacity: 1;"><text class="legendtext user-select-none" text-anchor="start" x="40" y="4.680000000000001" style="font-family: 'Open Sans', verdana, arial, sans-serif; font-size: 12px; fill: rgb(68, 68, 68); fill-opacity: 1; white-space: pre;">raw</text><g class="layers" style="opacity: 1;"><g class="legendfill"/><g class="legendlines"><path class="js-line" d="M5,0h30" style="fill: none; stroke: rgb(73, 121, 177); stroke-opacity: 0.8; stroke-dasharray: 6px; stroke-width: 2px;"/></g><g class="legendsymbols"><g class="legendpoints"/></g></g><rect class="legendtoggle" pointer-events="all" x="0" y="-9.5" width="64.65625" height="19" style="cursor: pointer; fill: rgb(0, 0, 0); fill-opacity: 0;"/></g><g class="traces" transform="translate(67.15625, 14.5)" style="opacity: 1;"><text class="legendtext user-select-none" text-anchor="start" x="40" y="4.680000000000001" style="font-family: 'Open Sans', verdana, arial, sans-serif; font-size: 12px; fill: rgb(68, 68, 68); fill-opacity: 1; white-space: pre;">smoothed</text><g class="layers" style="opacity: 1;"><g class="legendfill"/><g class="legendlines"><path class="js-line" d="M5,0h30" style="fill: none; stroke: rgb(192, 0, 0); stroke-opacity: 1; stroke-width: 2.5px;"/></g><g class="legendsymbols"><g class="legendpoints"/></g></g><rect class="legendtoggle" pointer-events="all" x="0" y="-9.5" width="101.9375" height="19" style="cursor: pointer; fill: rgb(0, 0, 0); fill-opacity: 0;"/></g></g></g><rect class="scrollbar" rx="20" ry="3" width="0" height="0" x="0" y="0" style="fill: rgb(128, 139, 164); fill-opacity: 1;"/></g><g class="g-gtitle"><text class="gtitle" x="240" y="20" text-anchor="middle" dy="0em" style="font-family: 'Open Sans', verdana, arial, sans-serif; font-size: 17px; fill: rgb(68, 68, 68); opacity: 1; font-weight: normal; white-space: pre;">New Infections</text></g><g class="g-xtitle"/><g class="g-ytitle"/></g></svg>