<svg class="main-svg" xmlns="http://www.w3.org/2000/svg" xmlns:xlink="http://www.w3.org/1999/xlink" width="480" height="240" style="" viewBox="0 0 480 240"><rect x="0" y="0" width="480" height="240" style="fill: rgb(255, 255, 255); fill-opacity: 1;"/><defs id="defs-6423c1"><g class="clips"><clipPath id="clip6423c1xyplot" class="plotclip"><rect width="448" height="155"/></clipPath><clipPath class="axesclip" id="clip6423c1x"><rect x="32" y="0" width="448" height="240"/></clipPath><clipPath class="axesclip" id="clip6423c1y"><rect x="0" y="40" width="480" height="155"/></clipPath><clipPath class="axesclip" id="clip6423c1xy"><rect x="32" y="40" width="448" height="155"/></clipPath></g><g class="gradients"/></defs><g class="bglayer"/><g class="layer-below"><g class="imagelayer"/><g class="shapelayer"/></g><g class="cartesianlayer"><g class="subplot xy"><g class="layer-subplot"><g class="shapelayer"/><g class="imagelayer"/></g><g class="gridlayer"><g class="x"/><g class="y"><path class="ygrid crisp" transform="translate(0,147.12)" d="M32,0h448" style="stroke: rgb(238, 238, 238); stroke-opacity: 1; stroke-width: 1px;"/><path class="ygrid crisp" transform="translate(0,99.22999999999999)" d="M32,0h448" style="stroke: rgb(238, 238, 238); stroke-opacity: 1; stroke-width: 1px;"/><path class="ygrid crisp" transform="translate(0,51.35)" d="M32,0h448" style="stroke: rgb(238, 238, 238); stroke-opacity: 1; stroke-width: 1px;"/></g></g><g class="zerolinelayer"><path class="yzl zl crisp" transform="translate(0,195)" d="M32,0h448" style="stroke: rgb(68, 68, 68); stroke-opacity: 1; stroke-width: 1px;"/></g><path class="xlines-below"/><path class="ylines-below"/><g class="overlines-below"/><g class="xaxislayer-below"/><g class="yaxislayer-below"/><g class="overaxes-below"/><g class="plot" transform="translate(32, 40)" clip-path="url('#clip6423c1xyplot')"><g class="scatterlayer mlayer"><g class="trace scatter trace5a2a02" style="stroke-miterlimit: 2; opacity: 1;"><g class="fills"><g><path class="js-fill" d="M80.64,155L80.64,0L98.56,0L98.56,155Z" style="fill: rgb(192, 192, 192); fill-opacity: 0.2; stroke-width: 0;"/></g></g><g class="errorbars"/><g class="lines"><path class="js-line" d="M80.64,155L80.64,0L98.56,0L98.56,155" style="vector-effect: non-scaling-stroke; fill: none; stroke: rgb(31, 119, 180); stroke-opacity: 1; stroke-width: 0px; opacity: 1;"/></g><g class="points"/><g class="text"/></g><g class="trace scatter tracedcfaf6" style="stroke-miterlimit: 2; opacity: 1;"><g class="fills"><g><path class="js-fill" d="M98.56,155L98.56,0L255.36,0L255.36,155Z" style="fill: rgb(153, 52, 4); fill-opacity: 0.2; stroke-width: 0;"/></g></g><g class="errorbars"/><g class="lines"><path class="js-line" d="M98.56,155L98.56,0L255.36,0L255.36,155" style="vector-effect: non-scaling-stroke; fill: none; stroke: rgb(255, 127, 14); stroke-opacity: 1; stroke-width: 0px; opacity: 1;"/></g><g class="points"/><g class="text"/></g><g class="trace scatter trace1afbde" style="stroke-miterlimit: 2; opacity: 1;"><g class="fills"><g><path class="js-fill" d="M255.36,155L255.36,0L394.24,0L394.24,155Z" style="fill: rgb(217, 95, 14); fill-opacity: 0.2; stroke-width: 0;"/></g></g><g class="errorbars"/><g class="lines"><path class="js-line" d="M255.36,155L255.36,0L394.24,0L394.24,155" style="vector-effect: non-scaling-stroke; fill: none; stroke: rgb(44, 160, 44); stroke-opacity: 1; stroke-width: 0px; opacity: 1;"/></g><g class="points"/><g class="text"/></g><g class="trace scatter trace4108a0" style="stroke-miterlimit: 2; opacity: 1;"><g class="fills"><g><path class="js-fill" d="M394.24,155L394.24,0L448,0L448,155Z" style="fill: rgb(254, 153, 41); fill-opacity: 0.2; stroke-width: 0;"/></g></g><g class="errorbars"/><g class="lines"><path class="js-line" d="M394.24,155L394.24,0L448,0L448,155" style="vector-effect: non-scaling-stroke; fill: none; stroke: rgb(214, 39, 40); stroke-opacity: 1; stroke-width: 0px; opacity: 1;"/></g><g class="points"/><g class="text"/></g><g class="trace scatter tracefef098" style="stroke-miterlimit: 2; opacity: 1;"><g class="fills"/><g class="errorbars"/><g class="lines"><path class="js-line" d="M80.64,155L80.64,0" style="vector-effect: non-scaling-stroke; fill: none; stroke: rgb(0, 0, 0); stroke-opacity: 0.2; stroke-width: 1px; opacity: 1;"/></g><g class="points"/><g class="text"/></g><g class="trace scatter tracea542ae" style="stroke-miterlimit: 2; opacity: 1;"><g class="fills"/><g class="errorbars"/><g class="lines"><path class="js-line" d="M98.56,155L98.56,0" style="vector-effect: non-scaling-stroke; fill: none; stroke: rgb(0, 0, 0); stroke-opacity: 0.2; stroke-width: 1px; opacity: 1;"/></g><g class="points"/><g class="text"/></g><g class="trace scatter traceab6112" style="stroke-miterlimit: 2; opacity: 1;"><g class="fills"/><g class="errorbars"/><g class="lines"><path class="js-line" d="M255.36,155L255.36,0" style="vector-effect: non-scaling-stroke; fill: none; stroke: rgb(0, 0, 0); stroke-opacity: 0.2; stroke-width: 1px; opacity: 1;"/></g><g class="points"/><g class="text"/></g><g class="trace scatter tracecde703" style="stroke-miterlimit: 2; opacity: 1;"><g class="fills"/><g class="errorbars"/><g class="lines"><path class="js-line" d="M394.24,155L394.24,0" style="vector-effect: non-scaling-stroke; fill: none; stroke: rgb(0, 0, 0); stroke-opacity: 0.2; stroke-width: 1px; opacity: 1;"/></g><g class="points"/><g class="text"/></g><g class="trace scatter trace00b0b7" style="stroke-miterlimit: 2; opacity: 1;"><g class="fills"><g><path class="js-fill" d="M0,155L0,154.81L0,155Z" style="fill: rgb(205, 218, 233); fill-opacity: 0.8; stroke-width: 0;"/></g></g><g class="errorbars"/><g class="lines"><path class="js-line" d="M0,155L0,154.81L0,155" style="vector-effect: non-scaling-stroke; fill: none; stroke: rgb(188, 189, 34); stroke-opacity: 1; stroke-width: 0px; opacity: 1;"/></g><g class="points"/><g class="text"/></g><g class="trace scatter trace42487e" style="stroke-miterlimit: 2;"><g class="fills"><g><path class="js-fill" d="M0,154.7L26.88,154.45L31.36,154.34L62.72,152.77L67.2,152.33L94.08,149.6L98.56,149.53L116.48,150.75L120.96,151.04L138.88,151.43L143.36,151.39L165.76,150.2L170.24,149.81L206.08,145.88L210.56,145.36L246.4,140.57L250.88,139.65L277.76,133.07L282.24,131.62L295.68,126.25L300.16,124.27L336,108.86L340.48,107.13L353.92,101.21L358.4,98.75L367.36,92.6L371.84,88.89L385.28,75.6L389.76,70.63L407.68,48.6L412.16,43.15L439.04,12.27L443.52,6.2L448,0L448,12.78L443.52,18.55L439.04,24.2L412.16,52.93L407.68,58L389.76,78.48L385.28,83.1L371.84,95.42L367.36,98.87L358.4,104.56L353.92,106.84L340.48,112.31L336,113.92L304.64,126.25L300.16,128.12L282.24,134.85L277.76,136.17L250.88,142.14L246.4,142.97L224,145.85L219.52,146.31L174.72,150.79L170.24,151.14L143.36,152.47L138.88,152.51L103.04,151.01L98.56,150.9L80.64,151.97L76.16,152.41L49.28,154.3L44.8,154.45L0,154.96Z" style="fill: rgb(205, 218, 233); fill-opacity: 0.8; stroke-width: 0;"/></g></g><g class="errorbars"/><g class="lines"><path class="js-line" d="M0,154.96L44.8,154.45L49.28,154.3L76.16,152.41L80.64,151.97L98.56,150.9L103.04,151.01L138.88,152.51L143.36,152.47L170.24,151.14L174.72,150.79L219.52,146.31L224,145.85L246.4,142.97L250.88,142.14L277.76,136.17L282.24,134.85L300.16,128.12L304.64,126.25L336,113.92L340.48,112.31L353.92,106.84L358.4,104.56L367.36,98.87L371.84,95.42L385.28,83.1L389.76,78.48L407.68,58L412.16,52.93L439.04,24.2L443.52,18.55L448,12.78" style="vector-effect: non-scaling-stroke; fill: none; stroke: rgb(73, 121, 177); stroke-opacity: 0.5; stroke-width: 1px; opacity: 1;"/></g><g class="points"/><g class="text"/></g><g class="trace scatter traceef237a" style="stroke-miterlimit: 2;"><g class="fills"/><g class="errorbars"/><g class="lines"><path class="js-line" d="M0,154.7L26.88,154.45L31.36,154.34L62.72,152.77L67.2,152.33L94.08,149.6L98.56,149.53L116.48,150.75L120.96,151.04L138.88,151.43L143.36,151.39L165.76,150.2L170.24,149.81L206.08,145.88L210.56,145.36L246.4,140.57L250.88,139.65L277.76,133.07L282.24,131.62L295.68,126.25L300.16,124.27L336,108.86L340.48,107.13L353.92,101.21L358.4,98.75L367.36,92.6L371.84,88.89L385.28,75.6L389.76,70.63L407.68,48.6L412.16,43.15L439.04,12.27L443.52,6.2L448,0" style="vector-effect: non-scaling-stroke; fill: none; stroke: rgb(73, 121, 177); stroke-opacity: 0.5; stroke-width: 1px; opacity: 1;"/></g><g class="points"/><g class="text"/></g><g class="trace scatter tracef1a9e6" style="stroke-miterlimit: 2; opacity: 1;"><g class="fills"/><g class="errorbars"/><g class="lines"><path class="js-line" d="M0,154.9L40.32,154.28L44.8,154.14L67.2,152.65L71.68,152.17L94.08,150.21L98.56,150.21L138.88,151.98L143.36,151.94L170.24,150.36L174.72,149.97L232.96,143.65L237.44,143.03L255.36,139.63L259.84,138.62L277.76,134.17L282.24,132.73L300.16,125.5L304.64,123.54L331.52,112.43L336,110.8L349.44,105.44L353.92,103.29L362.88,97.92L367.36,94.57L376.32,86.72L380.8,82.31L394.24,67.61L398.72,62.25L416.64,41.28L421.12,36.63L434.56,21.88L439.04,16.23L448,4.22" style="vector-effect: non-scaling-stroke; fill: none; stroke: rgb(192, 0, 0); stroke-opacity: 1; stroke-width: 2px; opacity: 1;"/></g><g class="points"/><g class="text"/></g><g class="trace scatter trace6000a5" style="stroke-miterlimit: 2; opacity: 1;"><g class="fills"/><g class="errorbars"/><g class="lines"><path class="js-line" d="M0,154.87L35.84,154.47L40.32,154.34L67.2,152.82L71.68,152.36L98.56,150.25L103.04,150.37L138.88,152L143.36,151.96L165.76,150.87L170.24,150.51L210.56,146.34L215.04,145.83L246.4,141.81L250.88,140.94L277.76,134.66L282.24,133.28L300.16,126.25L304.64,124.31L331.52,113.12L336,111.46L353.92,104.1L358.4,101.73L367.36,95.81L371.84,92.24L385.28,79.44L389.76,74.65L407.68,53.41L412.16,48.16L439.04,18.38L443.52,12.52L448,6.54" style="vector-effect: non-scaling-stroke; fill: none; stroke: rgb(73, 121, 177); stroke-opacity: 1; stroke-width: 2.5px; opacity: 1;"/></g><g class="points"/><g class="text"/></g></g></g><g class="overplot"/><path class="xlines-above crisp" d="M0,0" style="fill: none;"/><path class="ylines-above crisp" d="M0,0" style="fill: none;"/><g class="overlines-above"/><g class="xaxislayer-above"><g class="xtick"><text text-anchor="middle" x="0" y="208" transform="translate(76.8,0)" style="font-family: 'Open Sans', verdana, arial, sans-serif; font-size: 12px; fill: rgb(68, 68, 68); fill-opacity: 1; white-space: pre;">15 Mar</text></g><g class="xtick"><text text-anchor="middle" x="0" y="208" transform="translate(202.24,0)" style="font-family: 'Open Sans', verdana, arial, sans-serif; font-size: 12px; fill: rgb(68, 68, 68); fill-opacity: 1; white-space: pre;">12 Apr</text></g><g class="xtick"><text text-anchor="middle" x="0" y="208" transform="translate(327.68,0)" style="font-family: 'Open Sans', verdana, arial, sans-serif; font-size: 12px; fill: rgb(68, 68, 68); fill-opacity: 1; white-space: pre;">10 May</text></g><g class="xtick"><text text-anchor="middle" x="0" y="208" transform="translate(453.12,0)" style="font-family: 'Open Sans', verdana, arial, sans-serif; font-size: 12px; fill: rgb(68, 68, 68); fill-opacity: 1; white-space: pre;">07 Jun</text></g></g><g class="yaxislayer-above"><g class="ytick"><text text-anchor="end" x="31" y="4.199999999999999" transform="translate(0,195)" style="font-family: 'Open Sans', verdana, arial, sans-serif; font-size: 12px; fill: rgb(68, 68, 68); fill-opacity: 1; white-space: pre;">0</text></g><g class="ytick"><text text-anchor="end" x="31" y="4.199999999999999" transform="translate(0,147.12)" style="font-family: 'Open Sans', verdana, arial, sans-serif; font-size: 12px; fill: rgb(68, 68, 68); fill-opacity: 1; white-space: pre;">1000</text></g><g class="ytick"><text text-anchor="end" x="31" y="4.199999999999999" transform="translate(0,99.22999999999999)" style="font-family: 'Open Sans', verdana, arial, sans-serif; font-size: 12px; fill: rgb(68, 68, 68); fill-opacity: 1; white-space: pre;">2000</text></g><g class="ytick"><text text-anchor="end" x="31" y="4.199999999999999" transform="translate(0,51.35)" style="font-family: 'Open Sans', verdana, arial, sans-serif; font-size: 12px; fill: rgb(68, 68, 68); fill-opacity: 1; white-space: pre;">3000</text></g></g><g class="overaxes-above"/></g></g><g class="polarlayer"/><g class="ternarylayer"/><g class="geolayer"/><g class="funnelarealayer"/><g class="pielayer"/><g class="treemaplayer"/><g class="sunburstlayer"/><g class="glimages"/><defs id="topdefs-6423c1"><g class="clips"/><clipPath id="legend6423c1"><rect width="171" height="29" x="0" y="0"/></clipPath></defs><g class="layer-above"><g class="imagelayer"/><g class="shapelayer"/></g><g class="infolayer"><g class="legend" pointer-events="all" transform="translate(32, 210.5)"><rect class="bg" shape-rendering="crispEdges" style="stroke: rgb(68, 68, 68); stroke-opacity: 1; fill: rgb(255, 255, 255); fill-opacity: 1; stroke-width: 0px;" width="171" height="29" x="0" y="0"/><g class="scrollbox" transform="translate(0, 0)" clip-path="url('#legend6423c1')"><g class="groups"><g class="traces" transform="translate(0, 14.5)" style="opacity: 1;"><text class="legendtext user-select-none" text-anchor="start" x="40" y="4.680000000000001" style="font-family: 'Open Sans', verdana, arial, sans-serif; font-size: 12px; fill: rgb(68, 68, 68); fill-opacity: 1; white-space: pre;">data</text><g class="layers" style="opacity: 1;"><g class="legendfill"/><g class="legendlines"><path class="js-line" d="M5,0h30" style="fill: none; stroke: rgb(192, 0, 0); stroke-opacity: 1; stroke-width: 2px;"/></g><g class="legendsymbols"><g class="legendpoints"/></g></g><rect class="legendtoggle" pointer-events="all" x="0" y="-9.5" width="69.125" height="19" style="cursor: pointer; fill: rgb(0, 0, 0); fill-opacity: 0;"/></g><g class="traces" transform="translate(71.625, 14.5)" style="opacity: 1;"><text class="legendtext user-select-none" text-anchor="start" x="40" y="4.680000000000001" style="font-family: 'Open Sans', verdana, arial, sans-serif; font-size: 12px; fill: rgb(68, 68, 68); fill-opacity: 1; white-space: pre;">posterior</text><g class="layers" style="opacity: 1;"><g class="legendfill"/><g class="legendlines"><path class="js-line" d="M5,0h30" style="fill: none; stroke: rgb(73, 121, 177); stroke-opacity: 1; stroke-width: 2.5px;"/></g><g class="legendsymbols"><g class="legendpoints"/></g></g><rect class="legendtoggle" pointer-events="all" x="0" y="-9.5" width="96.265625" height="19" style="cursor: pointer; fill: rgb(0, 0, 0); fill-opacity: 0;"/></g></g></g><rect class="scrollbar" rx="20" ry="3" width="0" height="0" style="fill: rgb(128, 139, 164); fill-opacity: 1;" x="0" y="0"/></g><g class="g-gtitle"><text class="gtitle" x="240" y="20" text-anchor="middle" dy="0em" style="font-family: 'Open Sans', verdana, arial, sans-serif; font-size: 17px; fill: rgb(68, 68, 68); opacity: 1; font-weight: normal; white-space: pre;">Posterior Infection Rate</text></g><g class="g-xtitle"/><g class="g-ytitle"/></g></svg>