<svg class="main-svg" xmlns="http://www.w3.org/2000/svg" xmlns:xlink="http://www.w3.org/1999/xlink" width="480" height="240" style="" viewBox="0 0 480 240"><rect x="0" y="0" width="480" height="240" style="fill: rgb(255, 255, 255); fill-opacity: 1;"/><defs id="defs-eb9445"><g class="clips"><clipPath id="clipeb9445xyplot" class="plotclip"><rect width="460" height="155"/></clipPath><clipPath class="axesclip" id="clipeb9445x"><rect x="20" y="0" width="460" height="240"/></clipPath><clipPath class="axesclip" id="clipeb9445y"><rect x="0" y="40" width="480" height="155"/></clipPath><clipPath class="axesclip" id="clipeb9445xy"><rect x="20" y="40" width="460" height="155"/></clipPath></g><g class="gradients"/></defs><g class="bglayer"/><g class="layer-below"><g class="imagelayer"/><g class="shapelayer"/></g><g class="cartesianlayer"><g class="subplot xy"><g class="layer-subplot"><g class="shapelayer"/><g class="imagelayer"/></g><g class="gridlayer"><g class="x"><path class="xgrid crisp" transform="translate(65.53999999999999,0)" d="M0,40v155" style="stroke: rgb(238, 238, 238); stroke-opacity: 1; stroke-width: 1px;"/><path class="xgrid crisp" transform="translate(193.07,0)" d="M0,40v155" style="stroke: rgb(238, 238, 238); stroke-opacity: 1; stroke-width: 1px;"/><path class="xgrid crisp" transform="translate(320.59,0)" d="M0,40v155" style="stroke: rgb(238, 238, 238); stroke-opacity: 1; stroke-width: 1px;"/><path class="xgrid crisp" transform="translate(448.12,0)" d="M0,40v155" style="stroke: rgb(238, 238, 238); stroke-opacity: 1; stroke-width: 1px;"/></g><g class="y"><path class="ygrid crisp" transform="translate(0,184.67)" d="M20,0h460" style="stroke: rgb(238, 238, 238); stroke-opacity: 1; stroke-width: 1px;"/><path class="ygrid crisp" transform="translate(0,143.32999999999998)" d="M20,0h460" style="stroke: rgb(238, 238, 238); stroke-opacity: 1; stroke-width: 1px;"/><path class="ygrid crisp" transform="translate(0,102)" d="M20,0h460" style="stroke: rgb(238, 238, 238); stroke-opacity: 1; stroke-width: 1px;"/><path class="ygrid crisp" transform="translate(0,60.67)" d="M20,0h460" style="stroke: rgb(238, 238, 238); stroke-opacity: 1; stroke-width: 1px;"/></g></g><g class="zerolinelayer"/><path class="xlines-below"/><path class="ylines-below"/><g class="overlines-below"/><g class="xaxislayer-below"/><g class="yaxislayer-below"/><g class="overaxes-below"/><g class="plot" transform="translate(20, 40)" clip-path="url('#clipeb9445xyplot')"><g class="scatterlayer mlayer"><g class="trace scatter tracebe8689" style="stroke-miterlimit: 2; opacity: 1;"><g class="fills"/><g class="errorbars"/><g class="lines"><path class="js-line" d="M4.55,-103.33L9.11,-310L13.66,0L18.22,-103.33L22.77,34.44L27.33,-103.33L31.88,20.67L36.44,0L40.99,25.83L45.54,20.67L50.1,39.74L54.65,25.83L59.21,44.29L63.76,39.74L68.32,53.23L72.87,46.5L77.43,41.33L81.98,35.52L86.53,46.75L91.09,64.34L95.64,78.53L100.2,98.87L104.75,128.25L109.31,152.06L113.86,152.22L118.42,138.76L122.97,117.84L127.52,91.41L132.08,76.54L136.63,86.11L141.19,100.1L145.74,109.79L150.3,106.72L154.85,85.82L159.41,80.37L163.96,85.36L168.51,83.78L173.07,77.5L177.62,75.47L186.73,86.42L191.29,82.32L195.84,77.7L200.4,84.68L204.95,92.74L209.5,95.73L214.06,87.34L218.61,76.93L223.17,82.87L227.72,95.85L232.28,106.96L236.83,107.04L245.94,84.04L250.5,79.71L255.05,81.3L259.6,84.04L264.16,85.01L268.71,90.53L273.27,98.39L277.82,103.87L282.38,97.92L286.93,83.78L291.49,75.26L296.04,78.99L300.59,85.73L305.15,89.91L309.7,91.7L314.26,92.31L318.81,91.65L323.37,89.14L327.92,87.11L332.48,90.49L337.03,97.75L341.58,102.43L346.14,100.17L350.69,93.75L355.25,90.54L359.8,92.88L364.36,98.35L368.91,100.71L373.47,94.64L378.02,83.79L382.57,78.8L387.13,82.99L391.68,91.42L396.24,97.82L400.79,99.06L405.35,92.2L409.9,81.86L414.46,78.1L419.01,85.52L423.56,96.99L428.12,104.89L432.67,106.06L437.23,101.07L441.78,92.29L446.34,84.18L450.89,81.4L455.45,84.08L460,88.88" style="vector-effect: non-scaling-stroke; fill: none; stroke: rgb(31, 119, 180); stroke-opacity: 1; stroke-width: 2px; opacity: 1;"/></g><g class="points"/><g class="text"/></g><g class="trace scatter trace3c7927" style="stroke-miterlimit: 2; opacity: 1;"><g class="fills"/><g class="errorbars"/><g class="lines"><path class="js-line" d="M4.55,-310L9.11,0L13.66,-103.33L18.22,34.44L22.77,-103.33L27.33,20.67L31.88,0L36.44,25.83L40.99,20.67L45.54,39.74L50.1,38.75L54.65,41.33L59.21,45.47L63.76,43.33L68.32,50.34L72.87,43.06L77.43,49.13L81.98,54.39L86.53,67.78L91.09,78.46L95.64,93L104.75,131.12L109.31,139.8L113.86,138.19L118.42,124.61L127.52,96.08L132.08,92.64L136.63,96.44L141.19,96.56L145.74,100L150.3,93.33L159.41,82.06L163.96,83.78L168.51,80.08L173.07,82.2L182.18,81.68L186.73,83.57L195.84,83.58L200.4,87.97L204.95,88.95L209.5,88.57L214.06,86.01L218.61,88.34L223.17,92.3L227.72,97.59L232.28,98.66L236.83,96.9L241.39,90.81L245.94,86.39L250.5,83.69L255.05,84.61L259.6,86.11L264.16,90.45L273.27,96.13L277.82,93.67L286.93,84.98L291.49,82.89L300.59,86.95L305.15,89.51L309.7,90.68L314.26,90.78L323.37,90.54L327.92,92.04L337.03,97.01L341.58,97.42L355.25,94.67L359.8,95.21L364.36,95.32L368.91,93.22L373.47,89.3L378.02,86.4L382.57,86.3L387.13,89.13L391.68,92.01L396.24,93.34L400.79,91.41L405.35,88.11L409.9,86.42L414.46,88.18L423.56,97.64L428.12,100.06L432.67,99.2L437.23,95.39L441.78,90.91L446.34,88.15L450.89,88.22L455.45,89.95L460,92.51" style="vector-effect: non-scaling-stroke; fill: none; stroke: rgb(255, 127, 14); stroke-opacity: 1; stroke-width: 2px; opacity: 1;"/></g><g class="points"/><g class="text"/></g><g class="trace scatter trace2e737f" style="stroke-miterlimit: 2; opacity: 1;"><g class="fills"/><g class="errorbars"/><g class="lines"><path class="js-line" d="M4.55,0L9.11,-103.33L13.66,-34.44L18.22,0L22.77,20.67L27.33,0L31.88,25.83L36.44,41.33L40.99,34.44L45.54,48.22L50.1,45.93L54.65,46.97L59.21,49.75L63.76,53.23L68.32,51.67L72.87,56.94L77.43,64.8L81.98,70.39L86.53,74.56L91.09,84.76L95.64,92.57L104.75,109.53L109.31,116.25L113.86,121.91L118.42,118.83L122.97,114.66L127.52,112.45L136.63,100L141.19,96.67L145.74,96.77L150.3,90.42L159.41,85.87L163.96,84.3L173.07,82.43L177.62,84.16L182.18,83.65L186.73,85.2L191.29,86.53L195.84,84.55L200.4,87.44L204.95,87.12L209.5,88.21L214.06,90.34L218.61,89.93L223.17,91.73L232.28,92.81L236.83,92.36L250.5,89.3L255.05,88.68L264.16,89.17L268.71,90.64L286.93,88.61L291.49,87.78L296.04,87.18L300.59,87.94L323.37,91.85L327.92,92.97L346.14,95.27L350.69,95.14L359.8,94.15L364.36,93.19L378.02,90.4L382.57,89.92L400.79,90.21L405.35,90.54L414.46,91.75L419.01,92.93L428.12,94.81L432.67,95.22L455.45,94.65L460,95.2" style="vector-effect: non-scaling-stroke; fill: none; stroke: rgb(44, 160, 44); stroke-opacity: 1; stroke-width: 2px; opacity: 1;"/></g><g class="points"/><g class="text"/></g><g class="trace scatter trace1625e7" style="stroke-miterlimit: 2; opacity: 1;"><g class="fills"/><g class="errorbars"/><g class="lines"><path class="js-line" d="M0,140.8L460,140.8" style="vector-effect: non-scaling-stroke; fill: none; stroke: rgb(192, 0, 0); stroke-opacity: 1; stroke-width: 1.5px; opacity: 1;"/></g><g class="points"/><g class="text"/></g></g></g><g class="overplot"/><path class="xlines-above crisp" d="M0,0" style="fill: none;"/><path class="ylines-above crisp" d="M0,0" style="fill: none;"/><g class="overlines-above"/><g class="xaxislayer-above"><g class="xtick"><text text-anchor="middle" x="0" y="208" transform="translate(65.53999999999999,0)" style="font-family: 'Open Sans', verdana, arial, sans-serif; font-size: 12px; fill: rgb(68, 68, 68); fill-opacity: 1; white-space: pre;">15 Mar</text></g><g class="xtick"><text text-anchor="middle" x="0" y="208" transform="translate(193.07,0)" style="font-family: 'Open Sans', verdana, arial, sans-serif; font-size: 12px; fill: rgb(68, 68, 68); fill-opacity: 1; white-space: pre;">12 Apr</text></g><g class="xtick"><text text-anchor="middle" x="0" y="208" transform="translate(320.59,0)" style="font-family: 'Open Sans', verdana, arial, sans-serif; font-size: 12px; fill: rgb(68, 68, 68); fill-opacity: 1; white-space: pre;">10 May</text></g><g class="xtick"><text text-anchor="middle" x="0" y="208" transform="translate(448.12,0)" style="font-family: 'Open Sans', verdana, arial, sans-serif; font-size: 12px; fill: rgb(68, 68, 68); fill-opacity: 1; white-space: pre;">07 Jun</text></g></g><g class="yaxislayer-above"><g class="ytick"><text text-anchor="end" x="19" y="4.199999999999999" transform="translate(0,184.67)" style="font-family: 'Open Sans', verdana, arial, sans-serif; font-size: 12px; fill: rgb(68, 68, 68); fill-opacity: 1; white-space: pre;">0.8</text></g><g class="ytick"><text text-anchor="end" x="19" y="4.199999999999999" transform="translate(0,143.32999999999998)" style="font-family: 'Open Sans', verdana, arial, sans-serif; font-size: 12px; fill: rgb(68, 68, 68); fill-opacity: 1; white-space: pre;">1</text></g><g class="ytick"><text text-anchor="end" x="19" y="4.199999999999999" transform="translate(0,102)" style="font-family: 'Open Sans', verdana, arial, sans-serif; font-size: 12px; fill: rgb(68, 68, 68); fill-opacity: 1; white-space: pre;">1.2</text></g><g class="ytick"><text text-anchor="end" x="19" y="4.199999999999999" transform="translate(0,60.67)" style="font-family: 'Open Sans', verdana, arial, sans-serif; font-size: 12px; fill: rgb(68, 68, 68); fill-opacity: 1; white-space: pre;">1.4</text></g></g><g class="overaxes-above"/></g></g><g class="polarlayer"/><g class="ternarylayer"/><g class="geolayer"/><g class="funnelarealayer"/><g class="pielayer"/><g class="treemaplayer"/><g class="sunburstlayer"/><g class="glimages"/><defs id="topdefs-eb9445"><g class="clips"/><clipPath id="legendeb9445"><rect width="285" height="29" x="0" y="0"/></clipPath></defs><g class="layer-above"><g class="imagelayer"/><g class="shapelayer"/></g><g class="infolayer"><g class="legend" pointer-events="all" transform="translate(20, 210.5)"><rect class="bg" shape-rendering="crispEdges" style="stroke: rgb(68, 68, 68); stroke-opacity: 1; fill: rgb(255, 255, 255); fill-opacity: 1; stroke-width: 0px;" width="285" height="29" x="0" y="0"/><g class="scrollbox" transform="translate(0, 0)" clip-path="url('#legendeb9445')"><g class="groups"><g class="traces" transform="translate(0, 14.5)" style="opacity: 1;"><text class="legendtext user-select-none" text-anchor="start" x="40" y="4.680000000000001" style="font-family: 'Open Sans', verdana, arial, sans-serif; font-size: 12px; fill: rgb(68, 68, 68); fill-opacity: 1; white-space: pre;">σ = 1.8 </text><g class="layers" style="opacity: 1;"><g class="legendfill"/><g class="legendlines"><path class="js-line" d="M5,0h30" style="fill: none; stroke: rgb(31, 119, 180); stroke-opacity: 1; stroke-width: 2px;"/></g><g class="legendsymbols"><g class="legendpoints"/></g></g><rect class="legendtoggle" pointer-events="all" x="0" y="-9.5" width="92.171875" height="19" style="cursor: pointer; fill: rgb(0, 0, 0); fill-opacity: 0;"/></g><g class="traces" transform="translate(94.671875, 14.5)" style="opacity: 1;"><text class="legendtext user-select-none" text-anchor="start" x="40" y="4.680000000000001" style="font-family: 'Open Sans', verdana, arial, sans-serif; font-size: 12px; fill: rgb(68, 68, 68); fill-opacity: 1; white-space: pre;">σ = 2.3 </text><g class="layers" style="opacity: 1;"><g class="legendfill"/><g class="legendlines"><path class="js-line" d="M5,0h30" style="fill: none; stroke: rgb(255, 127, 14); stroke-opacity: 1; stroke-width: 2px;"/></g><g class="legendsymbols"><g class="legendpoints"/></g></g><rect class="legendtoggle" pointer-events="all" x="0" y="-9.5" width="92.171875" height="19" style="cursor: pointer; fill: rgb(0, 0, 0); fill-opacity: 0;"/></g><g class="traces" transform="translate(189.34375, 14.5)" style="opacity: 1;"><text class="legendtext user-select-none" text-anchor="start" x="40" y="4.680000000000001" style="font-family: 'Open Sans', verdana, arial, sans-serif; font-size: 12px; fill: rgb(68, 68, 68); fill-opacity: 1; white-space: pre;">σ = 3.5 </text><g class="layers" style="opacity: 1;"><g class="legendfill"/><g class="legendlines"><path class="js-line" d="M5,0h30" style="fill: none; stroke: rgb(44, 160, 44); stroke-opacity: 1; stroke-width: 2px;"/></g><g class="legendsymbols"><g class="legendpoints"/></g></g><rect class="legendtoggle" pointer-events="all" x="0" y="-9.5" width="92.171875" height="19" style="cursor: pointer; fill: rgb(0, 0, 0); fill-opacity: 0;"/></g></g></g><rect class="scrollbar" rx="20" ry="3" width="0" height="0" style="fill: rgb(128, 139, 164); fill-opacity: 1;" x="0" y="0"/></g><g class="g-gtitle"><text class="gtitle" x="240" y="20" text-anchor="middle" dy="0em" style="font-family: 'Open Sans', verdana, arial, sans-serif; font-size: 17px; fill: rgb(68, 68, 68); opacity: 1; font-weight: normal; white-space: pre;">New Infection Ratio</text></g><g class="g-xtitle"/><g class="g-ytitle"/></g></svg>